<?xml version="1.0"?>
<svg xmlns="http://www.w3.org/2000/svg" id="Layer_1" enable-background="new 0 0 512 512" height="512px" viewBox="0 0 512 512" width="512px"><g><path d="m359.5 190.738v-20c0-7.97-5.361-14.699-12.662-16.805-5.871-26.899-26.198-48.132-51.938-55.814v-23.119h2.1c4.143 0 7.5-3.357 7.5-7.5v-47.374c0-11.098-9.028-20.126-20.126-20.126h-56.748c-11.098 0-20.126 9.028-20.126 20.126v47.374c0 4.143 3.358 7.5 7.5 7.5h2.1v23.069c-6.75 1.994-13.212 4.939-19.2 8.788-3.484 2.24-4.494 6.88-2.254 10.364 2.239 3.485 6.88 4.494 10.364 2.255 9.645-6.199 20.834-9.476 32.359-9.476h35.26c26.881 0 50.265 18.073 57.574 43.238h-150.421c1.353-4.678 3.277-9.172 5.759-13.43 2.085-3.578.875-8.171-2.704-10.256-3.578-2.085-8.17-.875-10.256 2.703-3.956 6.788-6.764 14.062-8.418 21.678-7.302 2.105-12.663 8.834-12.663 16.805v20c0 7.321 4.524 13.598 10.92 16.205v14.218c-6.266 2.666-10.67 8.883-10.67 16.111v20c0 7.228 4.405 13.445 10.67 16.111v71.803c-6.396 2.607-10.92 8.884-10.92 16.205v20c0 7.321 4.524 13.598 10.92 16.205v14.906c-6.266 2.666-10.67 8.883-10.67 16.111v20c0 7.228 4.405 13.445 10.67 16.111v25.206c0 12.17 9.905 22.07 22.08 22.07h141c12.175 0 22.08-9.9 22.08-22.07v-25.111c6.396-2.607 10.92-8.884 10.92-16.205v-20c0-7.321-4.524-13.598-10.92-16.205v-14.812c6.396-2.607 10.92-8.884 10.92-16.205v-20c0-7.321-4.524-13.598-10.92-16.205v-71.709c6.396-2.607 10.92-8.884 10.92-16.205v-20c0-7.321-4.524-13.598-10.92-16.205v-14.124c6.396-2.608 10.92-8.884 10.92-16.206zm-137-170.612c0-2.826 2.299-5.126 5.126-5.126h56.748c2.826 0 5.126 2.3 5.126 5.126v39.874h-67zm15.87 74.874c-2.101 0-4.191.098-6.27.271v-20.271h47.8v20.276c-2.071-.175-4.16-.276-6.27-.276zm102.71 164.77c-.02 0-.038.003-.058.003h-20.969c-4.143 0-7.5 3.357-7.5 7.5s3.357 7.5 7.5 7.5h13.527v69.119h-155.16v-69.119h109.633c4.143 0 7.5-3.357 7.5-7.5s-3.357-7.5-7.5-7.5h-117.075c-.02 0-.039-.003-.058-.003s-.038.003-.058.003h-.612c-1.378 0-2.5-1.121-2.5-2.5v-20c0-1.379 1.122-2.5 2.5-2.5h171.75c1.379 0 2.5 1.121 2.5 2.5v20c0 1.379-1.121 2.5-2.5 2.5h-.862c-.019-.001-.038-.003-.058-.003zm0 124.12c-.013 0-.026.002-.039.002h-170.082c-.013 0-.026-.002-.039-.002s-.026.002-.039.002h-.881c-1.378 0-2.5-1.121-2.5-2.5v-20c0-1.379 1.122-2.5 2.5-2.5h172c1.379 0 2.5 1.121 2.5 2.5v20c0 1.379-1.121 2.5-2.5 2.5h-.881c-.013 0-.026-.002-.039-.002zm-162.66 27.223v-12.222h155.16v12.222zm0-191.341v-11.534h155.16v11.534zm-6.861-51.531c.021 0 .042-.003.064-.003h168.754c.021 0 .042.003.064.003.014 0 .029-.003.043-.003h1.516c1.379 0 2.5 1.121 2.5 2.5v20c0 1.379-1.121 2.5-2.5 2.5h-172c-1.378 0-2.5-1.121-2.5-2.5v-20c0-1.379 1.122-2.5 2.5-2.5h1.516c.015 0 .029.003.043.003zm154.941 328.759h-141c-3.904 0-7.08-3.172-7.08-7.07v-23.816h13.819c4.142 0 7.5-3.357 7.5-7.5s-3.358-7.5-7.5-7.5h-21.261c-.02 0-.039-.003-.058-.003s-.038.003-.058.003h-.612c-1.378 0-2.5-1.121-2.5-2.5v-20c0-1.379 1.122-2.5 2.5-2.5h171.75c1.379 0 2.5 1.121 2.5 2.5v20c0 1.379-1.121 2.5-2.5 2.5h-.862c-.02 0-.039-.003-.058-.003s-.038.003-.058.003h-116.597c-4.142 0-7.5 3.357-7.5 7.5s3.358 7.5 7.5 7.5h109.155v23.816c0 3.898-3.176 7.07-7.08 7.07z" fill="#FFFFFF"/></g></svg>
