<?xml version="1.0" encoding="iso-8859-1"?>
<!-- Generator: Adobe Illustrator 19.0.0, SVG Export Plug-In . SVG Version: 6.00 Build 0)  -->
<svg xmlns="http://www.w3.org/2000/svg" xmlns:xlink="http://www.w3.org/1999/xlink" version="1.1" id="Capa_1" x="0px" y="0px" viewBox="0 0 511.999 511.999" style="enable-background:new 0 0 511.999 511.999;" xml:space="preserve" width="512px" height="512px">
<g>
	<g>
		<path d="M502.421,240.456l-35.596-35.596c2.106-7.178,3.25-15.067,3.254-23.215c0.01-22.184-8.344-41.932-21.229-51.274    c-7.039-33.949-37.176-59.544-73.182-59.544h-42.875l-53.63-53.63c-12.772-12.771-33.552-12.771-46.325,0l-53.629,53.63h-42.875    c-36.235,0-66.52,25.925-73.307,60.198c-10.621,6.481-17.931,17.161-19.934,29.489c-0.726,4.471-1.096,9.094-1.098,13.739    c-0.004,10.285,1.811,20.153,5.083,28.705l-37.5,37.499c-12.771,12.772-12.771,33.553,0,46.324l34.876,34.877    c-1.644,6.455-2.53,13.418-2.533,20.58c-0.004,8.221,1.121,16.122,3.318,23.522v106.502c0,17.711,14.409,32.12,32.12,32.12    h359.282c17.711,0,32.12-14.409,32.12-32.12V364.159c0.048-0.264,0.104-0.525,0.147-0.79c0.726-4.47,1.096-9.093,1.098-13.738    c0.004-9.311-1.486-18.279-4.195-26.241l36.61-36.61C515.192,274.009,515.192,253.228,502.421,240.456z M52.945,301.862    l-29.224-29.225c-4.973-4.973-4.973-13.066,0-18.039l22.37-22.37c-0.014,0.04-0.025,0.082-0.039,0.123    c-0.314,0.936-0.613,1.885-0.893,2.848c-0.04,0.137-0.074,0.278-0.113,0.415c-0.236,0.827-0.461,1.662-0.671,2.507    c-0.082,0.329-0.154,0.664-0.232,0.996c-0.155,0.663-0.307,1.327-0.447,1.999c-0.08,0.384-0.152,0.772-0.226,1.159    c-0.121,0.633-0.238,1.269-0.346,1.91c-0.068,0.408-0.132,0.818-0.195,1.229c-0.096,0.634-0.185,1.271-0.267,1.911    c-0.054,0.416-0.106,0.832-0.153,1.251c-0.074,0.657-0.138,1.318-0.197,1.98c-0.036,0.403-0.075,0.805-0.106,1.211    c-0.055,0.726-0.094,1.457-0.131,2.189c-0.017,0.345-0.041,0.688-0.054,1.035c-0.041,1.079-0.065,2.163-0.066,3.253    c0,1.013,0.017,2.022,0.051,3.026c0.444,12.954,3.765,25.097,9.236,34.564c0.041,0.072,0.079,0.147,0.121,0.218    c0.293,0.501,0.6,0.985,0.904,1.47c0.14,0.223,0.273,0.455,0.415,0.675c0.222,0.343,0.457,0.668,0.685,1.003    c0.235,0.345,0.464,0.698,0.706,1.034C53.689,300.766,53.313,301.308,52.945,301.862z M246.98,31.339    c4.973-4.972,13.066-4.974,18.039,0l39.486,39.486h-97.012L246.98,31.339z M81.651,143.278c0.015-0.327,0.027-0.654,0.048-0.985    c0.01-0.172,0.027-0.342,0.039-0.513c0.072-0.988,0.167-1.992,0.296-3.029c0.001-0.012,0.001-0.024,0.002-0.035    c3.384-26.958,26.435-47.888,54.296-47.888h239.334c27.567,0,50.427,20.488,54.184,47.034c0.002,0.013,0.001,0.025,0.003,0.038    c0.152,1.082,0.266,2.161,0.355,3.233c0.027,0.335,0.056,0.669,0.077,1.006c0.023,0.362,0.042,0.723,0.059,1.083    c0.033,0.778,0.06,1.557,0.06,2.342c0,16.018-6.91,31.128-18.948,41.448c-0.431,0.368-0.844,0.761-1.238,1.176    c-0.069,0.073-0.129,0.155-0.197,0.229c-0.318,0.346-0.63,0.698-0.92,1.073c-0.001,0.002-0.002,0.003-0.004,0.005    c-0.001,0.001-0.002,0.002-0.003,0.004c-0.087,0.112-0.165,0.229-0.248,0.343c-0.084,0.116-0.171,0.229-0.252,0.349    c-0.132,0.188-0.263,0.378-0.381,0.564c-0.1,0.154-0.202,0.325-0.299,0.497c-0.081,0.141-0.161,0.287-0.24,0.437    c-0.007,0.012-0.013,0.023-0.02,0.036c-0.018,0.033-0.036,0.066-0.043,0.079c-0.094,0.174-0.185,0.346-0.274,0.523    c-0.075,0.148-0.146,0.299-0.213,0.45c-0.051,0.116-0.101,0.235-0.155,0.365c-0.146,0.337-0.277,0.668-0.396,1.006    c-0.003,0.007-0.005,0.015-0.007,0.022c-0.001,0.003-0.003,0.006-0.004,0.009c-0.07,0.198-0.133,0.398-0.197,0.609    c-0.089,0.291-0.167,0.576-0.243,0.869c-0.013,0.05-0.025,0.101-0.037,0.15c-0.057,0.237-0.106,0.477-0.151,0.73    c-0.06,0.313-0.111,0.625-0.151,0.936c0,0.001,0,0.002,0,0.003v0.001c-0.019,0.138-0.029,0.28-0.044,0.42    c-0.015,0.141-0.034,0.279-0.045,0.424c-0.02,0.254-0.035,0.503-0.044,0.755c-0.01,0.195-0.016,0.401-0.016,0.574v153.46H106.361    V199.65c0-0.201-0.006-0.396-0.016-0.593c-0.011-0.295-0.029-0.595-0.057-0.893c-0.016-0.183-0.034-0.367-0.056-0.552    c-0.009-0.074-0.018-0.148-0.029-0.222c-0.039-0.28-0.085-0.554-0.14-0.832c-0.015-0.085-0.038-0.171-0.056-0.257    c-0.044-0.221-0.087-0.443-0.143-0.663c-0.049-0.194-0.103-0.387-0.17-0.623c-0.015-0.054-0.057-0.191-0.073-0.245    c-0.058-0.188-0.118-0.38-0.182-0.566c-0.012-0.035-0.024-0.071-0.037-0.107c-0.097-0.271-0.204-0.542-0.312-0.801    c-0.001-0.003-0.039-0.094-0.04-0.097c-0.084-0.202-0.168-0.398-0.256-0.589c-0.043-0.093-0.087-0.185-0.133-0.275    c-0.07-0.142-0.146-0.284-0.229-0.436c-0.015-0.028-0.027-0.053-0.037-0.07c-0.12-0.229-0.242-0.455-0.372-0.679    c-0.038-0.064-0.076-0.129-0.115-0.192c-0.146-0.239-0.281-0.439-0.41-0.622c-0.016-0.023-0.031-0.045-0.047-0.067    c-0.158-0.235-0.321-0.468-0.513-0.721c-0.179-0.234-0.361-0.454-0.555-0.678c-0.047-0.056-0.044-0.053-0.092-0.107l-0.195-0.229    c-0.092-0.105-0.186-0.209-0.282-0.311c-0.404-0.426-0.834-0.834-1.25-1.188c-0.619-0.531-1.215-1.082-1.807-1.637    c-0.129-0.121-0.267-0.235-0.395-0.358c-0.499-0.478-0.975-0.975-1.453-1.469c-0.206-0.213-0.423-0.416-0.624-0.632    c-0.391-0.418-0.76-0.853-1.137-1.282c-0.27-0.307-0.552-0.606-0.815-0.919c-0.283-0.337-0.546-0.689-0.821-1.033    c-0.335-0.42-0.68-0.834-1.003-1.263c-0.182-0.243-0.348-0.496-0.526-0.741c-0.395-0.544-0.793-1.086-1.166-1.644    c-0.099-0.148-0.187-0.302-0.285-0.451c-0.436-0.665-0.867-1.334-1.273-2.018c-0.029-0.048-0.054-0.099-0.082-0.147    c-2.442-4.138-4.333-8.591-5.613-13.247c-0.015-0.054-0.026-0.11-0.04-0.165c-0.498-1.831-0.906-3.693-1.213-5.579    c-0.013-0.078-0.02-0.158-0.032-0.236c-0.449-2.838-0.685-5.729-0.685-8.652C81.593,144.795,81.62,144.036,81.651,143.278z     M403.8,373.112L65.24,441.403v-68.291H403.8z M61.921,342.246C61.921,342.246,61.921,342.246,61.921,342.246    c0.006-14.601,4.611-26.029,9.764-32.05c0.093-0.108,0.189-0.207,0.283-0.313c0.272-0.306,0.545-0.608,0.819-0.884    c0.388-0.387,0.78-0.757,1.179-1.092c0.565-0.475,1.07-1.006,1.51-1.581c1.32-1.727,2.055-3.856,2.056-6.069v-0.001    c0.001-1.476-0.325-2.914-0.932-4.221c-0.608-1.307-1.498-2.483-2.627-3.434c-4.863-4.094-9.761-13.164-11.423-25.397    c-0.383-2.823-0.594-5.814-0.593-8.952c0.008-16.733,6.055-29.303,12.046-34.337c2.26-1.899,3.565-4.699,3.566-7.651    c0.001-2.583-0.996-5.05-2.759-6.901c-0.252-0.264-0.519-0.516-0.801-0.754c-0.348-0.293-0.696-0.617-1.043-0.96    c-0.061-0.06-0.121-0.122-0.181-0.183c-5.556-5.638-10.798-17.612-10.791-33.204c0.001-3.577,0.284-7.123,0.839-10.541    c0.121-0.742,0.278-1.472,0.47-2.19c0.236,1.087,0.502,2.165,0.786,3.238c0.086,0.327,0.182,0.651,0.272,0.976    c0.229,0.821,0.471,1.638,0.727,2.45c0.115,0.365,0.231,0.73,0.352,1.094c0.302,0.907,0.621,1.807,0.957,2.7    c0.076,0.202,0.145,0.407,0.222,0.609c0.408,1.057,0.845,2.101,1.301,3.137c0.154,0.35,0.317,0.696,0.476,1.044    c0.332,0.724,0.674,1.443,1.029,2.156c0.185,0.373,0.37,0.745,0.562,1.115c0.422,0.813,0.86,1.617,1.311,2.414    c0.122,0.215,0.235,0.435,0.36,0.649c0.556,0.959,1.14,1.903,1.739,2.837c0.229,0.358,0.467,0.71,0.703,1.064    c0.419,0.629,0.847,1.251,1.285,1.868c0.256,0.36,0.511,0.721,0.774,1.076c0.547,0.741,1.109,1.47,1.683,2.191    c0.209,0.262,0.415,0.524,0.628,0.783c0.647,0.789,1.312,1.564,1.993,2.328c0.281,0.315,0.569,0.624,0.856,0.935    c0.535,0.58,1.079,1.152,1.634,1.716c0.286,0.291,0.571,0.583,0.862,0.87c0.802,0.789,1.618,1.566,2.46,2.322    c0.028,0.025,0.054,0.052,0.082,0.077V353.11H62.807C62.221,349.59,61.919,345.928,61.921,342.246z M448.759,472.261    c0,6.682-5.436,12.119-12.119,12.119H77.358c-6.682,0-12.119-5.436-12.119-12.119v-10.168l383.519-14.075V472.261z     M448.76,428.005l-4.684,0.172l-259.274,9.515l263.958-53.243V428.005z M438.023,231.279c5.985,5.039,12.023,17.614,12.016,34.348    c-0.001,2.092-0.096,4.119-0.274,6.073c-1.244,13.686-6.529,23.859-11.771,28.265c-2.26,1.898-3.565,4.699-3.567,7.65    c0,0.369,0.02,0.736,0.06,1.099c0.229,2.079,1.113,4.025,2.507,5.578c0.066,0.073,0.123,0.153,0.192,0.225    c0.009,0.01,0.021,0.019,0.03,0.029c0.243,0.253,0.499,0.496,0.771,0.725c0.011,0.009,0.022,0.02,0.033,0.03    c0.353,0.299,0.706,0.624,1.058,0.974c0.041,0.041,0.082,0.086,0.123,0.128c5.561,5.635,10.809,17.616,10.803,33.218    c-0.001,1.168-0.031,2.332-0.091,3.489h-24.279V201.179c0.877-0.784,1.725-1.593,2.559-2.414c0.224-0.22,0.445-0.442,0.665-0.665    c0.713-0.719,1.411-1.45,2.092-2.195c0.116-0.126,0.235-0.249,0.35-0.376c0.772-0.857,1.518-1.734,2.247-2.623    c0.189-0.231,0.374-0.465,0.56-0.698c0.589-0.737,1.163-1.484,1.722-2.241c0.151-0.205,0.307-0.406,0.456-0.613    c0.668-0.924,1.313-1.862,1.936-2.814c0.146-0.222,0.285-0.449,0.428-0.673c0.501-0.784,0.987-1.577,1.458-2.378    c0.151-0.256,0.303-0.511,0.451-0.769c0.564-0.987,1.109-1.984,1.628-2.996c0.09-0.176,0.173-0.355,0.262-0.532    c0.437-0.87,0.855-1.748,1.258-2.635c0.13-0.286,0.26-0.573,0.386-0.861c0.461-1.049,0.905-2.106,1.317-3.177    c0.019-0.049,0.035-0.099,0.054-0.148c0.395-1.032,0.76-2.075,1.108-3.125c0.099-0.298,0.195-0.597,0.29-0.896    c0.308-0.967,0.599-1.941,0.868-2.922c0.041-0.148,0.087-0.295,0.126-0.443c0.012-0.046,0.027-0.091,0.039-0.137    c1.36,4.929,2.183,10.591,2.18,16.789c-0.007,16.734-6.054,29.304-12.045,34.337c-1.317,1.107-2.297,2.524-2.897,4.094    c-0.044,0.114-0.097,0.224-0.137,0.34c-0.004,0.011-0.006,0.023-0.01,0.035c-0.341,1.015-0.523,2.088-0.523,3.182    C434.463,226.576,435.765,229.378,438.023,231.279z M488.277,272.637l-24.47,24.471c0.036-0.084,0.067-0.173,0.103-0.257    c0.439-1.018,0.858-2.055,1.253-3.115c0.072-0.192,0.136-0.389,0.206-0.582c0.327-0.9,0.636-1.814,0.93-2.74    c0.096-0.301,0.19-0.602,0.283-0.906c0.321-1.058,0.626-2.128,0.905-3.217c0.016-0.063,0.035-0.123,0.051-0.186    c0.292-1.153,0.552-2.327,0.795-3.511c0.063-0.308,0.121-0.618,0.181-0.928c0.185-0.962,0.354-1.933,0.507-2.913    c0.042-0.268,0.088-0.533,0.127-0.801c0.176-1.208,0.327-2.428,0.451-3.659c0.026-0.253,0.043-0.509,0.067-0.764    c0.093-1.012,0.168-2.03,0.225-3.054c0.019-0.344,0.039-0.687,0.054-1.032c0.056-1.261,0.094-2.527,0.095-3.803v-0.001    c0-0.984-0.017-1.964-0.05-2.94c-0.011-0.329-0.033-0.656-0.048-0.984c-0.029-0.644-0.057-1.289-0.1-1.929    c-0.026-0.39-0.063-0.776-0.095-1.164c-0.046-0.573-0.091-1.147-0.148-1.716c-0.042-0.412-0.094-0.82-0.141-1.231    c-0.063-0.539-0.124-1.078-0.196-1.612c-0.057-0.422-0.123-0.84-0.186-1.26c-0.078-0.515-0.156-1.029-0.243-1.54    c-0.073-0.426-0.152-0.847-0.231-1.269c-0.093-0.498-0.187-0.994-0.289-1.487c-0.087-0.423-0.18-0.841-0.274-1.26    c-0.108-0.484-0.218-0.966-0.335-1.444c-0.102-0.418-0.208-0.832-0.316-1.246c-0.123-0.47-0.249-0.938-0.38-1.403    c-0.116-0.41-0.234-0.818-0.356-1.224c-0.138-0.458-0.279-0.913-0.425-1.366c-0.129-0.401-0.259-0.8-0.394-1.195    c-0.153-0.448-0.311-0.891-0.471-1.332c-0.141-0.389-0.283-0.777-0.43-1.16c-0.168-0.439-0.343-0.871-0.519-1.303    c-0.152-0.372-0.303-0.745-0.46-1.112c-0.186-0.433-0.38-0.858-0.573-1.283c-0.161-0.353-0.32-0.709-0.486-1.056    c-0.205-0.428-0.418-0.846-0.631-1.266c-0.168-0.331-0.332-0.665-0.505-0.991c-0.23-0.433-0.469-0.854-0.708-1.277    c-0.167-0.297-0.33-0.599-0.501-0.891c-0.272-0.464-0.556-0.912-0.838-1.363c-0.149-0.237-0.292-0.481-0.444-0.715    c-0.014-0.022-0.027-0.045-0.041-0.066l29.05,29.049C493.25,259.571,493.251,267.664,488.277,272.637z" fill="#FFFFFF"/>
	</g>
</g>
<g>
	<g>
		<path d="M216.337,136.878c-3.904-3.904-10.238-3.904-14.143,0l-68.498,68.498c-3.905,3.905-3.905,10.238,0,14.144    c1.952,1.952,4.512,2.929,7.071,2.929c2.559,0,5.119-0.977,7.071-2.929l68.498-68.498    C220.242,147.117,220.242,140.785,216.337,136.878z" fill="#FFFFFF"/>
	</g>
</g>
<g>
	<g>
		<path d="M240.559,120.513c-0.13-0.641-0.32-1.271-0.57-1.881c-0.25-0.6-0.56-1.18-0.92-1.72c-0.36-0.55-0.78-1.06-1.24-1.519    c-0.46-0.46-0.98-0.88-1.52-1.24c-0.55-0.36-1.13-0.67-1.73-0.92s-1.23-0.45-1.87-0.57c-1.29-0.26-2.62-0.26-3.91,0    c-0.64,0.12-1.27,0.32-1.87,0.57s-1.18,0.56-1.73,0.92c-0.54,0.36-1.06,0.78-1.52,1.24c-0.46,0.46-0.88,0.97-1.24,1.519    c-0.36,0.54-0.67,1.12-0.92,1.72c-0.25,0.61-0.44,1.24-0.57,1.881c-0.13,0.64-0.19,1.3-0.19,1.949c0,0.65,0.06,1.311,0.19,1.95    c0.129,0.64,0.32,1.271,0.57,1.871c0.25,0.61,0.56,1.19,0.92,1.731c0.36,0.55,0.78,1.059,1.24,1.52c0.46,0.46,0.98,0.88,1.52,1.24    c0.55,0.359,1.13,0.67,1.73,0.92s1.23,0.45,1.87,0.58c0.65,0.13,1.3,0.189,1.96,0.189c2.63,0,5.2-1.069,7.06-2.93    c0.47-0.46,0.88-0.97,1.25-1.52c0.36-0.54,0.67-1.12,0.92-1.731c0.25-0.6,0.44-1.23,0.57-1.87c0.13-0.64,0.19-1.3,0.19-1.95    C240.749,121.813,240.689,121.152,240.559,120.513z" fill="#FFFFFF"/>
	</g>
</g>
<g>
	<g>
		<path d="M292.677,145.073c-3.905-3.903-10.238-3.904-14.143,0l-68.498,68.497c-3.904,3.905-3.904,10.238,0,14.144    c1.953,1.952,4.512,2.929,7.071,2.929c2.559,0,5.119-0.977,7.071-2.929l68.497-68.497    C296.581,155.311,296.582,148.979,292.677,145.073z" fill="#FFFFFF"/>
	</g>
</g>
<g>
	<g>
		<path d="M205.425,240.172c-0.129-0.631-0.319-1.261-0.569-1.871c-0.25-0.6-0.56-1.18-0.92-1.72c-0.36-0.55-0.78-1.059-1.24-1.52    c-0.46-0.46-0.98-0.88-1.52-1.25c-0.55-0.359-1.13-0.67-1.73-0.92s-1.23-0.439-1.87-0.569c-3.25-0.65-6.7,0.41-9.031,2.739    c-0.46,0.461-0.88,0.971-1.24,1.52c-0.36,0.54-0.671,1.12-0.921,1.72c-0.25,0.61-0.44,1.24-0.57,1.87    c-0.13,0.65-0.19,1.311-0.19,1.96c0,2.63,1.06,5.21,2.92,7.07c1.87,1.859,4.44,2.93,7.07,2.93c0.66,0,1.31-0.07,1.96-0.2    c0.64-0.13,1.27-0.319,1.87-0.569c0.6-0.25,1.18-0.561,1.73-0.92c0.54-0.36,1.05-0.78,1.52-1.24c1.86-1.86,2.93-4.44,2.93-7.07    C205.625,241.483,205.555,240.822,205.425,240.172z" fill="#FFFFFF"/>
	</g>
</g>
<g>
</g>
<g>
</g>
<g>
</g>
<g>
</g>
<g>
</g>
<g>
</g>
<g>
</g>
<g>
</g>
<g>
</g>
<g>
</g>
<g>
</g>
<g>
</g>
<g>
</g>
<g>
</g>
<g>
</g>
</svg>
