<?xml version="1.0"?>
<svg xmlns="http://www.w3.org/2000/svg" id="Layer_1" enable-background="new 0 0 512 512" height="512px" viewBox="0 0 512 512" width="512px"><path d="m407.237 0h-75.229c-5.732 0-10.962 3.267-13.478 8.416l-27.639 56.584-173.231.013c-8.284 0-15 6.716-15 15s6.716 15 15 15h2.215l-27.316 38.226c-1.818 2.544-2.796 5.594-2.796 8.721v303.51c0 1.619.28 3.253.798 4.786.097.287.965 2.925 1.353 2.925l27.952 51.026c2.632 4.806 7.676 7.793 13.155 7.793h227.179c5.483 0 10.53-2.992 13.161-7.804l14.084-25.757s13.867-25.217 13.879-25.24c1.294-2.354 2.163-5.024 2.163-7.73v-303.511c0-3.129-.979-6.18-2.798-8.725l-27.331-38.222h2.233c8.284 0 15-6.716 15-15s-6.716-15-15-15l-51.312-.011 17.096-35h65.862c8.284 0 15-6.716 15-15s-6.716-15-15-15zm-33.75 326.75h-64.128c-5.075 0-9.806 2.566-12.574 6.821-10.765 16.549-28.955 26.429-48.66 26.429-19.704 0-37.895-9.88-48.66-26.43-2.768-4.254-7.499-6.82-12.574-6.82h-67.128v-69.5h67.128c5.075 0 9.806-2.566 12.574-6.82 10.765-16.55 28.956-26.43 48.66-26.43 19.705 0 37.895 9.88 48.66 26.429 2.768 4.255 7.499 6.821 12.574 6.821h64.128zm-253.724 103.664v-73.664h59.462c16.635 20.961 41.823 33.25 68.9 33.25 27.078 0 52.265-12.289 68.9-33.25h56.462v73.664zm253.724-203.164h-56.462c-16.635-20.961-41.822-33.25-68.9-33.25-27.077 0-52.265 12.289-68.9 33.25h-59.462v-72.914h253.724zm-22.181 254.75h-209.398l-11.795-21.53h232.977zm6.139-357.664h-221.652l20.954-29.323h179.731z" fill="#FFFFFF"/></svg>
